<svg width="43" height="63" viewBox="0 0 43 63" fill="none" xmlns="http://www.w3.org/2000/svg">
<g filter="url(#filter0_d)">
<ellipse cx="21.6628" cy="20.5" rx="17.3372" ry="16.5" fill="white"/>
</g>
<path fill-rule="evenodd" clip-rule="evenodd" d="M23.1605 17.6713L17.6999 14.8427L23.1605 11.5427V14.0684C27.2493 14.3867 30.0836 17.4887 30.0836 21.2778C30.0836 25.2791 26.4967 28.5142 22.0836 28.5142C18.2168 28.5142 14.9863 26.0317 14.2439 22.7255C14.1825 22.4524 14.3753 22.1856 14.6745 22.1296C14.9736 22.0736 15.2659 22.2496 15.3272 22.5227C15.9648 25.3617 18.7448 27.5045 22.0836 27.5045C25.8964 27.5045 28.9777 24.7119 28.9777 21.2778C28.9777 18.1738 26.4602 15.5939 23.1605 15.1267V17.6713Z" fill="#A1C8CA" stroke="#A1C8CA" stroke-width="0.7"/>
<path d="M12.0259 56.5095L10.4959 54.1065C10.4479 54.1125 10.3759 54.1155 10.2799 54.1155H9.31689V56.5095H8.44388V50.0025H10.1809C10.6249 50.0025 11.0209 50.0805 11.3689 50.2365C11.7169 50.3925 11.9899 50.6235 12.1879 50.9295C12.3859 51.2295 12.4849 51.5925 12.4849 52.0185C12.4849 52.4205 12.3949 52.7895 12.2149 53.1255C12.0409 53.4615 11.7709 53.7165 11.4049 53.8905L13.0429 56.5095H12.0259ZM10.2619 53.2695C10.7299 53.2695 11.0659 53.1465 11.2699 52.9005C11.4799 52.6545 11.5849 52.3725 11.5849 52.0545C11.5849 51.8625 11.5399 51.6735 11.4499 51.4875C11.3659 51.3015 11.2279 51.1485 11.0359 51.0285C10.8499 50.9025 10.6129 50.8395 10.3249 50.8395H9.31689V53.2695H10.2619ZM15.81 55.8795C16.122 55.8795 16.425 55.7715 16.719 55.5555L17.106 56.1765C16.908 56.3085 16.692 56.4135 16.458 56.4915C16.23 56.5635 16.008 56.5995 15.792 56.5995C15.378 56.5995 15.015 56.5155 14.703 56.3475C14.397 56.1735 14.16 55.9365 13.992 55.6365C13.824 55.3365 13.74 54.9975 13.74 54.6195C13.74 54.2535 13.83 53.9205 14.01 53.6205C14.196 53.3145 14.448 53.0745 14.766 52.9005C15.084 52.7205 15.432 52.6305 15.81 52.6305C16.296 52.6305 16.701 52.7745 17.025 53.0625C17.355 53.3445 17.58 53.7405 17.7 54.2505L14.748 55.2855C14.856 55.4715 15 55.6185 15.18 55.7265C15.366 55.8285 15.576 55.8795 15.81 55.8795ZM15.747 53.2965C15.405 53.2965 15.123 53.4165 14.901 53.6565C14.679 53.8965 14.568 54.2025 14.568 54.5745C14.568 54.6645 14.571 54.7335 14.577 54.7815L16.746 53.9805C16.656 53.7765 16.527 53.6115 16.359 53.4855C16.197 53.3595 15.993 53.2965 15.747 53.2965ZM19.5768 49.5345V56.5095H18.7398V49.5345H19.5768ZM20.7098 54.6105C20.7098 54.2445 20.7968 53.9115 20.9708 53.6115C21.1508 53.3055 21.3968 53.0655 21.7088 52.8915C22.0268 52.7175 22.3838 52.6305 22.7798 52.6305C23.1758 52.6305 23.5268 52.7175 23.8328 52.8915C24.1448 53.0655 24.3848 53.3025 24.5528 53.6025C24.7268 53.9025 24.8138 54.2385 24.8138 54.6105C24.8138 54.9825 24.7268 55.3215 24.5528 55.6275C24.3848 55.9275 24.1448 56.1645 23.8328 56.3385C23.5208 56.5125 23.1638 56.5995 22.7618 56.5995C22.3718 56.5995 22.0208 56.5185 21.7088 56.3565C21.3968 56.1885 21.1508 55.9545 20.9708 55.6545C20.7968 55.3545 20.7098 55.0065 20.7098 54.6105ZM21.5558 54.6195C21.5558 54.8535 21.6068 55.0695 21.7088 55.2675C21.8168 55.4655 21.9608 55.6215 22.1408 55.7355C22.3268 55.8495 22.5308 55.9065 22.7528 55.9065C23.1008 55.9065 23.3888 55.7835 23.6168 55.5375C23.8448 55.2915 23.9588 54.9855 23.9588 54.6195C23.9588 54.2535 23.8448 53.9475 23.6168 53.7015C23.3888 53.4495 23.1008 53.3235 22.7528 53.3235C22.5248 53.3235 22.3208 53.3835 22.1408 53.5035C21.9608 53.6175 21.8168 53.7735 21.7088 53.9715C21.6068 54.1695 21.5558 54.3855 21.5558 54.6195ZM29.7631 52.7835V56.5095H28.9261V55.8975C28.7941 56.0715 28.6021 56.2335 28.3501 56.3835C28.0981 56.5275 27.8131 56.5995 27.4951 56.5995C27.1411 56.5995 26.8201 56.5245 26.5321 56.3745C26.2501 56.2185 26.0251 55.9935 25.8571 55.6995C25.6951 55.4055 25.6141 55.0545 25.6141 54.6465C25.6141 54.2385 25.6981 53.8845 25.8661 53.5845C26.0401 53.2785 26.2711 53.0445 26.5591 52.8825C26.8531 52.7145 27.1771 52.6305 27.5311 52.6305C27.8491 52.6305 28.1251 52.6995 28.3591 52.8375C28.5931 52.9755 28.7821 53.1555 28.9261 53.3775L28.9891 52.7835H29.7631ZM27.7201 55.9065C28.0261 55.9065 28.2871 55.8225 28.5031 55.6545C28.7251 55.4805 28.8661 55.2465 28.9261 54.9525V54.2145C28.8541 53.9505 28.7041 53.7375 28.4761 53.5755C28.2481 53.4075 27.9871 53.3235 27.6931 53.3235C27.4711 53.3235 27.2641 53.3775 27.0721 53.4855C26.8861 53.5935 26.7361 53.7465 26.6221 53.9445C26.5141 54.1365 26.4601 54.3555 26.4601 54.6015C26.4601 54.8415 26.5171 55.0605 26.6311 55.2585C26.7451 55.4565 26.8981 55.6155 27.0901 55.7355C27.2821 55.8495 27.4921 55.9065 27.7201 55.9065ZM35.1083 49.5345V56.5095H34.2623V55.9245C34.0823 56.1345 33.8603 56.2995 33.5963 56.4195C33.3383 56.5395 33.0533 56.5995 32.7413 56.5995C32.3933 56.5995 32.0783 56.5155 31.7963 56.3475C31.5143 56.1795 31.2923 55.9455 31.1303 55.6455C30.9743 55.3395 30.8963 54.9885 30.8963 54.5925C30.8963 54.1905 30.9803 53.8425 31.1483 53.5485C31.3163 53.2485 31.5473 53.0205 31.8413 52.8645C32.1353 52.7085 32.4683 52.6305 32.8403 52.6305C33.1223 52.6305 33.3923 52.6905 33.6503 52.8105C33.9143 52.9245 34.1213 53.0835 34.2713 53.2875V49.5345H35.1083ZM33.0023 55.8795C33.3263 55.8795 33.5993 55.7925 33.8213 55.6185C34.0493 55.4445 34.1963 55.2105 34.2623 54.9165V54.2145C34.1903 53.9445 34.0373 53.7255 33.8033 53.5575C33.5693 53.3835 33.3023 53.2965 33.0023 53.2965C32.7743 53.2965 32.5643 53.3535 32.3723 53.4675C32.1803 53.5755 32.0273 53.7285 31.9133 53.9265C31.7993 54.1185 31.7423 54.3375 31.7423 54.5835C31.7423 54.8235 31.7993 55.0425 31.9133 55.2405C32.0273 55.4385 32.1803 55.5945 32.3723 55.7085C32.5643 55.8225 32.7743 55.8795 33.0023 55.8795Z" fill="#8697A8"/>
<defs>
<filter id="filter0_d" x="0.325623" y="0" width="42.6744" height="41" filterUnits="userSpaceOnUse" color-interpolation-filters="sRGB">
<feFlood flood-opacity="0" result="BackgroundImageFix"/>
<feColorMatrix in="SourceAlpha" type="matrix" values="0 0 0 0 0 0 0 0 0 0 0 0 0 0 0 0 0 0 127 0"/>
<feOffset/>
<feGaussianBlur stdDeviation="2"/>
<feColorMatrix type="matrix" values="0 0 0 0 0 0 0 0 0 0 0 0 0 0 0 0 0 0 0.12 0"/>
<feBlend mode="normal" in2="BackgroundImageFix" result="effect1_dropShadow"/>
<feBlend mode="normal" in="SourceGraphic" in2="effect1_dropShadow" result="shape"/>
</filter>
</defs>
</svg>
