<svg width="33" height="32" viewBox="0 0 33 32" fill="none" xmlns="http://www.w3.org/2000/svg">
<rect x="0.384766" width="32" height="32" rx="16" fill="#D8BC8B"/>
<path d="M14.3333 14.1667V19.1667M17.6666 14.1667V19.1667M9.33325 10.8333H22.6666M21.8333 10.8333L21.1108 20.9517C21.0808 21.3722 20.8927 21.7657 20.5842 22.053C20.2757 22.3403 19.8698 22.5 19.4483 22.5H12.5516C12.13 22.5 11.7241 22.3403 11.4157 22.053C11.1072 21.7657 10.919 21.3722 10.8891 20.9517L10.1666 10.8333H21.8333ZM18.4999 10.8333V8.33333C18.4999 8.11232 18.4121 7.90036 18.2558 7.74408C18.0996 7.5878 17.8876 7.5 17.6666 7.5H14.3333C14.1122 7.5 13.9003 7.5878 13.744 7.74408C13.5877 7.90036 13.4999 8.11232 13.4999 8.33333V10.8333H18.4999Z" stroke="white" stroke-width="2" stroke-linecap="round" stroke-linejoin="round"/>
</svg>
